<svg xmlns="http://www.w3.org/2000/svg" viewBox="0 0 32 32" role="img" aria-labelledby="title desc">
  <title id="title">OpenConvert monoline mole favicon</title>
  <desc id="desc">Small-size monoline mole and continuous tunnel.</desc>
  <rect x="1" y="1" width="30" height="30" rx="8" fill="#FAFAFA"/>
  <circle cx="16" cy="16" r="11.5" fill="none" stroke="#2F6F6A" stroke-width="2.5"/>
  <path d="M8.7 21c.5-6.6 3.8-10.6 8.9-10.6 3.5 0 5.7 2.1 6.6 5.2.4 1.4 1.4 2.2 2.8 2.5"
        fill="none" stroke="#1D1D1F" stroke-width="2.5" stroke-linecap="round"/>
  <circle cx="19.6" cy="15.3" r="1.25" fill="#1D1D1F"/>
  <ellipse cx="27" cy="18.2" rx="2" ry="1.5" fill="#2F6F6A" stroke="#1D1D1F" stroke-width=".75"/>
  <path d="M7.3 25.1h18M9.5 24.4c0-2.6 1.1-4 3-4s3 1.4 3 4M17.2 24.4c0-2.6 1.1-4 3-4s3 1.4 3 4"
        fill="none" stroke="#1D1D1F" stroke-width="2" stroke-linecap="round" stroke-linejoin="round"/>
</svg>
